<svg xml:space="preserve" style="fill-rule:evenodd;clip-rule:evenodd;stroke-miterlimit:22.9256" viewBox="0 0 164 164"><circle cx="417.585" cy="156.699" r="76.03" style="fill:#536c4a;stroke:#000;stroke-width:.48px" transform="matrix(-1 0 0 1 499.122 -75.163)"/><path d="M476.87 154.902h-45.641c-.816 0-1.58.065-2.293.183-.773.127-1.492.317-2.161.55a8.6 8.6 0 0 0-1.759.847 7.8 7.8 0 0 0-1.465 1.198l-.015.014a8 8 0 0 0-1.201 1.463 8.4 8.4 0 0 0-.843 1.752 12.3 12.3 0 0 0-.521 2.077 17 17 0 0 0-.215 2.386l.002 13.174q.027 1.29.212 2.424.185 1.126.522 2.089c.22.63.507 1.21.852 1.747a9 9 0 0 0 1.201 1.486 9.1 9.1 0 0 0 3.316 2.125c1.262.469 2.715.718 4.368.718h45.641V168.84h-13.802l-6.297 6.297h13.626v7.701h-38.404a7 7 0 0 1-1.074-.082 5 5 0 0 1-.96-.245 4.5 4.5 0 0 1-.824-.4 4 4 0 0 1-.69-.545 3.85 3.85 0 0 1-.92-1.512q-.294-.864-.294-1.978v-12.057q.002-1.139.299-2.014c.204-.603.51-1.11.908-1.526a3.86 3.86 0 0 1 1.519-.965q.876-.314 2.036-.316h38.581zM369.477 161.198h37.722q1.113 0 1.978.294a3.85 3.85 0 0 1 1.51.92l.002.002q.615.615.919 1.528.294.879.294 2.019v12.115q0 1.113-.293 1.978-.304.893-.921 1.511-.3.303-.681.544a4.5 4.5 0 0 1-.809.4 5 5 0 0 1-.945.247 6.6 6.6 0 0 1-1.054.082h-37.722q-.55 0-1.054-.082a5 5 0 0 1-.944-.247 4.5 4.5 0 0 1-.81-.4 4 4 0 0 1-.681-.544 3.85 3.85 0 0 1-.92-1.511q-.294-.864-.294-1.978v-12.115q0-1.14.294-2.019a3.84 3.84 0 0 1 .919-1.528l.002-.002a3.85 3.85 0 0 1 1.511-.92q.864-.294 1.977-.294m-.706 27.937h39.134c1.649 0 3.098-.25 4.357-.718a9.2 9.2 0 0 0 3.327-2.127 8.9 8.9 0 0 0 2.073-3.273v-.002c.472-1.29.714-2.776.714-4.469v-13.174c0-1.673-.24-3.146-.711-4.426a8.8 8.8 0 0 0-2.074-3.258 9 9 0 0 0-1.481-1.201 8.2 8.2 0 0 0-1.742-.852 13 13 0 0 0-2.163-.55 14 14 0 0 0-2.3-.183h-39.134c-.816 0-1.583.065-2.3.183-.774.128-1.495.317-2.163.55a8.2 8.2 0 0 0-1.741.852 9 9 0 0 0-1.482 1.201 8.8 8.8 0 0 0-2.073 3.258c-.471 1.28-.711 2.753-.711 4.426v13.174c0 1.693.241 3.179.713 4.469v.002a8.9 8.9 0 0 0 2.073 3.273 9.2 9.2 0 0 0 3.327 2.127c1.259.468 2.708.718 4.357.718" style="fill:#fff;fill-rule:nonzero" transform="translate(-336.049 -105.801)"/><path d="M374.93 165.899v9.477q0 .902.351 1.287.387.351 1.287.351h4.54v2.925h-4.75q-1.204-.001-2.04-.253-.838-.25-1.353-.776-.526-.517-.777-1.365-.252-.848-.253-2.029v-9.617zm12.121 9.945q-.737 0-1.1.281-.374.28-.374.831v.058h4.341v-1.17zm2.867-2.925q0-.27-.094-.511a.84.84 0 0 0-.281-.378q-.374-.28-1.1-.281h-5.873l2.925-2.925h3.779v.012q1.72.093 2.621.831 1.017.842 1.018 2.515v7.757h-2.995v-2.059l-2.059 2.059h-5.289v-3.685q0-3.335 4.06-3.335zm10.342 4.095q.726 0 1.112-.281.35-.269.374-.83v-3.042q-.024-.562-.374-.831c-.257-.187-.632-.281-1.116-.281h-1.407q-.74 0-1.104.281-.375.268-.374.831l.007 6.212 2.06-2.059zm-5.884-12.285h2.995v6.154l2.067-2.059h1.232q4.071 0 4.071 3.335v4.422q.001 1.674-1.021 2.516c-.679.561-1.697.842-3.046.842h-6.298z" style="fill:#b0bf93;fill-rule:nonzero" transform="translate(-336.049 -106.433)"/><path d="M376.344 112.036h1.449v29.519h-1.449z" style="fill:#fff" transform="matrix(-1 0 0 1 418.089 -15.356)"/><path d="M388.806 112.701q2.176 0 3.424 1.04t1.248 2.864-1.248 2.864-3.424 1.04h-2.768v3.392h-1.599v-11.2zm-.048 6.416q1.52 0 2.32-.648t.8-1.864-.8-1.864-2.32-.648h-2.72v5.024zm14.588.592a5 5 0 0 1-.032.464h-6.879q.143 1.12.983 1.8t2.088.68q1.52 0 2.448-1.024l.848.992a3.7 3.7 0 0 1-1.432 1.024q-.856.352-1.912.352-1.344 0-2.384-.552a3.94 3.94 0 0 1-1.608-1.544q-.567-.992-.568-2.24 0-1.231.552-2.224a3.96 3.96 0 0 1 1.52-1.544q.969-.552 2.184-.552 1.217 0 2.168.552a3.87 3.87 0 0 1 1.488 1.544q.536.993.536 2.272m-4.192-3.072q-1.104 0-1.848.672t-.871 1.76h5.439q-.128-1.072-.872-1.752t-1.848-.68m7.9.208a2.62 2.62 0 0 1 1.184-1.12q.785-.384 1.904-.384v1.488a3 3 0 0 0-.352-.016q-1.248 0-1.96.744-.711.744-.712 2.12v4.224h-1.535v-8.48h1.471zm8.301-3.648q-1.376 0-1.376 1.488v.736h2.464v1.264h-2.432v7.216h-1.536v-7.216h-1.44v-1.264h1.44v-.752q0-1.263.736-2 .735-.735 2.064-.736.512 0 .96.129.447.128.768.368l-.465 1.167a1.9 1.9 0 0 0-1.183-.4m10.188 6.512a5 5 0 0 1-.032.464h-6.88q.144 1.12.984 1.8t2.088.68q1.52 0 2.448-1.024l.848.992a3.7 3.7 0 0 1-1.432 1.024q-.856.352-1.912.352-1.344 0-2.384-.552a3.94 3.94 0 0 1-1.608-1.544q-.567-.992-.568-2.24 0-1.231.552-2.224a3.96 3.96 0 0 1 1.52-1.544q.968-.552 2.184-.552t2.168.552a3.9 3.9 0 0 1 1.488 1.544q.536.993.536 2.272m-4.192-3.072q-1.104 0-1.848.672-.743.672-.872 1.76h5.44q-.129-1.072-.872-1.752-.744-.68-1.848-.68m10.124 7.36q-1.296 0-2.312-.56a4.1 4.1 0 0 1-1.592-1.544q-.576-.984-.576-2.232t.576-2.232a4.05 4.05 0 0 1 1.592-1.536q1.016-.552 2.312-.552 1.152 0 2.056.464.903.464 1.4 1.344l-1.168.752a2.6 2.6 0 0 0-.992-.912 2.84 2.84 0 0 0-1.312-.304q-.832 0-1.496.368a2.63 2.63 0 0 0-1.04 1.048q-.376.68-.376 1.56 0 .895.376 1.576.376.68 1.04 1.048t1.496.368q.72 0 1.312-.304.592-.305.992-.912l1.168.736a3.36 3.36 0 0 1-1.4 1.352q-.904.472-2.056.472m10.428-.592a2.3 2.3 0 0 1-.832.44 3.5 3.5 0 0 1-1.024.152q-1.28 0-1.984-.688-.704-.689-.704-1.968v-4.656h-1.44v-1.264h1.44v-1.856h1.536v1.856h2.432v1.264h-2.432v4.592q0 .688.344 1.056t.984.368q.704 0 1.2-.4zm-52.457 18.796q-1.68 0-3.032-.744a5.5 5.5 0 0 1-2.119-2.048q-.769-1.305-.769-2.936t.769-2.936a5.46 5.46 0 0 1 2.127-2.048q1.36-.744 3.04-.744 1.313 0 2.4.44a4.9 4.9 0 0 1 1.856 1.304l-1.04 1.008q-1.264-1.328-3.152-1.328-1.248 0-2.256.56a4.07 4.07 0 0 0-1.576 1.544q-.567.984-.567 2.2t.567 2.2 1.576 1.544 2.256.56q1.872 0 3.152-1.344l1.04 1.008a5 5 0 0 1-1.864 1.312q-1.096.447-2.408.448m9.42-8.688q1.76 0 2.696.864t.936 2.576v5.12h-1.456v-1.12q-.384.591-1.096.903-.711.313-1.688.313-1.424 0-2.28-.688-.855-.689-.855-1.808t.815-1.8q.817-.68 2.592-.68h2.432v-.304q0-.992-.576-1.52t-1.696-.528a4.5 4.5 0 0 0-1.472.248 3.8 3.8 0 0 0-1.215.664l-.64-1.152a4.6 4.6 0 0 1 1.567-.808 6.6 6.6 0 0 1 1.936-.28m-.352 7.472q.88 0 1.52-.392a2.24 2.24 0 0 0 .928-1.112v-1.184h-2.368q-1.952 0-1.952 1.312 0 .639.496 1.008.497.368 1.376.368m11.468-7.472q1.616 0 2.568.936t.952 2.744v4.88h-1.536v-4.704q0-1.232-.592-1.856t-1.696-.624q-1.248 0-1.968.728t-.72 2.088v4.368h-1.536v-8.48h1.472v1.28q.464-.656 1.257-1.008.79-.352 1.799-.352m11.004 0q1.615 0 2.568.936.952.936.952 2.744v4.88h-1.536v-4.704q0-1.232-.592-1.856t-1.696-.624q-1.247 0-1.968.728t-.72 2.088v4.368h-1.536v-8.48h1.472v1.28q.465-.656 1.256-1.008.792-.352 1.8-.352m9.564 0q1.76 0 2.696.864t.936 2.576v5.12h-1.456v-1.12q-.384.591-1.096.903-.711.313-1.688.313-1.423 0-2.28-.688-.855-.689-.855-1.808t.816-1.8q.815-.68 2.591-.68h2.432v-.304q0-.992-.576-1.52t-1.696-.528a4.5 4.5 0 0 0-1.472.248q-.72.248-1.216.664l-.639-1.152a4.6 4.6 0 0 1 1.567-.808 6.6 6.6 0 0 1 1.936-.28m-.352 7.472q.88 0 1.52-.392a2.24 2.24 0 0 0 .928-1.112v-1.184h-2.368q-1.952 0-1.952 1.312 0 .639.496 1.008.496.368 1.376.368m11.436-7.472q1.232 0 2.208.544a3.9 3.9 0 0 1 1.528 1.52q.552.976.552 2.256t-.552 2.264a3.9 3.9 0 0 1-1.528 1.528q-.976.544-2.208.544a4 4 0 0 1-1.728-.368 3.34 3.34 0 0 1-1.296-1.072v1.344h-1.472v-11.872h1.537v4.672a3.25 3.25 0 0 1 1.279-1.016 4.1 4.1 0 0 1 1.68-.344m-.128 7.312a2.87 2.87 0 0 0 1.464-.376 2.7 2.7 0 0 0 1.024-1.056q.376-.681.376-1.56 0-.88-.376-1.56a2.66 2.66 0 0 0-1.024-1.048 2.9 2.9 0 0 0-1.464-.368q-.8 0-1.456.368a2.6 2.6 0 0 0-1.024 1.048q-.368.68-.368 1.56 0 .879.368 1.56.369.68 1.024 1.056.656.375 1.456.376m6.652-7.232h1.536v8.48h-1.536zm.768-1.632q-.447 0-.744-.288a.95.95 0 0 1-.296-.704q0-.415.296-.712.297-.295.744-.295.449 0 .744.279a.92.92 0 0 1 .296.697q0 .431-.296.727a1 1 0 0 1-.744.296m6.237 10.208q-1.04 0-2-.28-.96-.281-1.504-.712l.64-1.216q.56.4 1.36.64t1.616.24q2.016 0 2.016-1.152a.75.75 0 0 0-.272-.608 1.7 1.7 0 0 0-.68-.328 15 15 0 0 0-1.16-.232q-1.024-.16-1.672-.368a2.6 2.6 0 0 1-1.112-.704q-.464-.496-.464-1.392 0-1.152.96-1.848t2.576-.696q.847 0 1.696.208.848.208 1.391.56l-.655 1.216q-1.041-.672-2.448-.672-.976 0-1.488.32t-.512.848q0 .416.288.656t.712.352 1.192.256a13 13 0 0 1 1.656.376q.632.2 1.08.68.447.48.447 1.344 0 1.151-.983 1.832-.985.68-2.68.68" style="fill:#fff;fill-rule:nonzero" transform="translate(-336.049 -15.898)"/></svg>